<svg width="28" height="28" viewBox="0 0 28 28" fill="none" xmlns="http://www.w3.org/2000/svg">
<g clip-path="url(#clip0_401_2)">
<path d="M14 28C21.732 28 28 21.732 28 14C28 6.26801 21.732 0 14 0C6.26801 0 0 6.26801 0 14C0 21.732 6.26801 28 14 28Z" fill="white"/>
<path d="M11.5332 4.66602L7.33317 9.88368L9.33317 10.966L12.9498 6.41602L11.5332 4.66602Z" fill="black"/>
<path d="M15.0498 6.41602L18.6665 10.966L20.6665 9.88368L16.4665 4.66602L15.0498 6.41602Z" fill="black"/>
<path d="M18.8998 12.0498L13.6332 12.5832L14.4665 17.5832L19.7332 16.0332L18.8998 12.0498Z" fill="black"/>
<path d="M9.1001 12.0498L8.26676 16.0332L13.5334 17.5832L14.3668 12.5832L9.1001 12.0498Z" fill="black"/>
<path d="M4.66675 11.533L9.88341 7.33299L10.9667 9.33299L6.41675 12.95L4.66675 11.533Z" fill="black"/>
<path d="M6.41675 15.05L10.9667 18.6667L9.88341 20.6667L4.66675 16.4667L6.41675 15.05Z" fill="black"/>
<path d="M12.95 21.5837L9.33333 17.0337L7.33333 18.116L11.5333 23.3337L12.95 21.5837Z" fill="black"/>
<path d="M15.05 21.5837L16.4667 23.3337L20.6667 18.116L18.6667 17.0337L15.05 21.5837Z" fill="black"/>
<path d="M21.5833 15.05L23.3333 16.4667L18.1166 20.6667L17.0333 18.6667L21.5833 15.05Z" fill="black"/>
<path d="M21.5833 12.95L17.0333 9.33299L18.1166 7.33299L23.3333 11.533L21.5833 12.95Z" fill="black"/>
<path d="M14 11.666C15.8409 11.666 17.3333 10.1736 17.3333 8.33301C17.3333 6.49239 15.8409 5.00001 14 5.00001C12.159 5.00001 10.6666 6.49239 10.6666 8.33301C10.6666 10.1736 12.159 11.666 14 11.666Z" fill="black"/>
<path d="M20.1667 11.133C20.4745 11.133 20.7667 11.233 21 11.4V10.2663C20.0833 9.83301 19.0583 9.56634 18 9.56634C17.4833 9.56634 17 9.64968 16.5333 9.78301L17.3 11.133H20.1667Z" fill="black"/>
<p/></g>
<defs>
<clipPath id="clip0_401_2">
<rect width="28" height="28" fill="white"/>
</clipPath>
</defs>
</svg>