<svg xmlns="http://www.w3.org/2000/svg" width="24" height="24" viewBox="0 0 24 24" fill="none" stroke="currentColor" stroke-width="2" stroke-linecap="round" stroke-linejoin="round" class="lucide lucide-webhook"><path d="M18 16.98h-5.45a3.24 3.24 0 0 1-3.24-3.24V8.29a3.24 3.24 0 0 1 3.24-3.24H18a3.24 3.24 0 0 1 3.24 3.24v5.45a3.24 3.24 0 0 1-3.24 3.24Z"/><path d="m6 17-4 4"/><path d="m10 17-4 4"/><path d="m6 13-4 4"/><path d="M2.34 21.66A2.25 2.25 0 0 1 3 21.1V18a2.25 2.25 0 0 1 2.25-2.25H8"/></svg>