<svg width="64" height="64" viewBox="0 0 64 64" fill="none" xmlns="http://www.w3.org/2000/svg">
<defs>
    <linearGradient id="grad1" x1="0%" y1="0%" x2="100%" y2="100%">
        <stop offset="0%" style="stop-color:hsl(var(--primary));stop-opacity:1" />
        <stop offset="100%" style="stop-color:hsl(var(--accent));stop-opacity:1" />
    </linearGradient>
</defs>
<circle cx="32" cy="32" r="28" fill="hsl(var(--background))" stroke="url(#grad1)" stroke-width="3"/>
<path d="M22 23 L26 23 L28 31 L30 23 L34 23 L29 41 L25 41 L22 23 Z" fill="url(#grad1)" />
<path d="M36 23 L44 23 L44 28 L40 28 L40 31 L43 31 L43 36 L40 36 L40 41 L36 41 L36 23 Z" fill="url(#grad1)" />
<path d="M49.5 32 C49.5 26.201 44.799 21.5 39 21.5 L39 26.5 C42.0376 26.5 44.5 28.9624 44.5 32 C44.5 35.0376 42.0376 37.5 39 37.5 L39 42.5 C44.799 42.5 49.5 37.799 49.5 32 Z" fill="url(#grad1)"/>
</svg>
